<svg xmlns="http://www.w3.org/2000/svg" width="356" height="322.302" viewBox="0 0 356 322.302">
  <g id="Grupo_4296" data-name="Grupo 4296" transform="translate(-281 -3196)">
    <g id="Grupo_4295" data-name="Grupo 4295" transform="translate(281 3196)">
      <ellipse id="Elipse_742" data-name="Elipse 742" cx="79.868" cy="27.521" rx="79.868" ry="27.521" transform="translate(0 267.26)" fill="#c4c4c4" opacity="0.3" style="mix-blend-mode: multiply;isolation: isolate"/>
      <ellipse id="Elipse_743" data-name="Elipse 743" cx="79.868" cy="27.521" rx="79.868" ry="27.521" transform="translate(177.573 267.26)" fill="#c4c4c4" opacity="0.3" style="mix-blend-mode: multiply;isolation: isolate"/>
      <g id="Grupo_4284" data-name="Grupo 4284" transform="translate(7.309 0)">
        <g id="Grupo_4283" data-name="Grupo 4283" transform="translate(0)">
          <path id="Trazado_6308" data-name="Trazado 6308" d="M337.622,284.92h0c-40.263-.185-73,21.506-73.188,61.769l-.609,133.14c-.079,17.24,32.5,31.367,72.761,31.551s72.968-13.643,73.047-30.883l.609-133.139C410.426,307.093,377.886,285.1,337.622,284.92Z" transform="translate(-263.602 -201.862)" fill="#e7f5f7"/>
          <path id="Trazado_6309" data-name="Trazado 6309" d="M396.209,292.619a2.55,2.55,0,0,0-.591-1.554,93.641,93.641,0,0,0-33.917-6.146h0a93.856,93.856,0,0,0-33.582,5.69,2.637,2.637,0,0,0-.717,1.7c-.021,4.628,15.365,8.451,34.366,8.537S396.188,297.247,396.209,292.619Z" transform="translate(-287.68 -201.862)" fill="#e7f5f7" opacity="0.5" style="mix-blend-mode: multiply;isolation: isolate"/>
          <path id="Trazado_6310" data-name="Trazado 6310" d="M340.563,371.757c-24.926-2.92-42.864-3.677-55.095-.23a13.149,13.149,0,0,0-9.577,12.6l-.575,125.864c.23,10.043,25.135,24.026,65.655,24.212s65.547-13.569,65.872-23.61l.673-146.562S390.733,377.635,340.563,371.757Z" transform="translate(-267.954 -231.825)" fill="#9ce3ff"/>
          <path id="Trazado_6311" data-name="Trazado 6311" d="M342.152,371.757c-24.926-2.921-42.864-3.678-55.1-.23a13.1,13.1,0,0,0-6.187,3.844c-3.461,3.838.389,8.669,3.875,10.135,6.106,2.569,13.392,2.961,19.925,3.114,19.594.458,39.176.4,58.584-2.8,15.835-2.6,36.528-7.22,45.852-21.795C409.1,364.034,392.323,377.634,342.152,371.757Z" transform="translate(-269.543 -231.824)" fill="#9ce3ff" opacity="0.3" style="mix-blend-mode: screen;isolation: isolate"/>
          <path id="Trazado_6312" data-name="Trazado 6312" d="M384.389,390.354c-.009,1.908-4.755,3.433-10.6,3.406s-10.576-1.595-10.567-3.5,4.754-3.432,10.6-3.405S384.4,388.447,384.389,390.354Z" transform="translate(-301.246 -240.467)" fill="#9ce3ff"/>
          <g id="Grupo_4268" data-name="Grupo 4268" transform="translate(65.269 91.217)">
            <g id="Grupo_4266" data-name="Grupo 4266" opacity="0.5">
              <path id="Trazado_6313" data-name="Trazado 6313" d="M383.376,298.12l-.262,57.319c-.007,1.443-3.267,2.584-7.307,2.566s-7.29-1.19-7.284-2.632l.263-57.32Z" transform="translate(-368.523 -298.053)" fill="#d5ebef"/>
            </g>
            <path id="Trazado_6314" data-name="Trazado 6314" d="M372.082,357.253a13.571,13.571,0,0,0,2.784.6l.274-59.776-2.787-.013Z" transform="translate(-369.871 -298.059)" fill="#f3feff" opacity="0.15"/>
            <g id="Grupo_4267" data-name="Grupo 4267" transform="translate(10.711 0.049)" opacity="0.25" style="mix-blend-mode: multiply;isolation: isolate">
              <path id="Trazado_6315" data-name="Trazado 6315" d="M385.763,357.736c2.3-.426,3.875-1.269,3.88-2.266l.263-57.32-3.87-.018Z" transform="translate(-385.763 -298.132)" fill="#d5ebef"/>
            </g>
          </g>
          <path id="Trazado_6316" data-name="Trazado 6316" d="M314.021,533.4A75.744,75.744,0,0,1,275.4,522.351l-.085,18.578c.23,10.043,25.135,24.026,65.655,24.212s65.547-13.569,65.872-23.61l.44-95.814C392.3,497.285,356.114,533.594,314.021,533.4Z" transform="translate(-267.954 -262.761)" fill="#9ce3ff" opacity="0.5" style="mix-blend-mode: multiply;isolation: isolate"/>
          <path id="Trazado_6317" data-name="Trazado 6317" d="M404.373,599.7c-.03,6.6-26.706,15.01-59.564,14.86s-59.457-8.8-59.427-15.4,26.677-8.664,59.536-8.514S404.4,593.1,404.373,599.7Z" transform="translate(-271.766 -317.647)" fill="#9ce3ff" opacity="0.5" style="mix-blend-mode: multiply;isolation: isolate"/>
          <path id="Trazado_6318" data-name="Trazado 6318" d="M312.751,554.954a4.966,4.966,0,1,0-4.988,4.943A4.965,4.965,0,0,0,312.751,554.954Z" transform="translate(-278.37 -302.243)" fill="#9ce3ff" opacity="0.7" style="mix-blend-mode: screen;isolation: isolate"/>
          <path id="Trazado_6319" data-name="Trazado 6319" d="M442.641,493.075a1.963,1.963,0,1,0-1.973,1.954A1.964,1.964,0,0,0,442.641,493.075Z" transform="translate(-329.837 -279.95)" fill="#9ce3ff" opacity="0.7" style="mix-blend-mode: screen;isolation: isolate"/>
          <path id="Trazado_6320" data-name="Trazado 6320" d="M464.151,574.172a1.963,1.963,0,1,0-1.973,1.954A1.964,1.964,0,0,0,464.151,574.172Z" transform="translate(-337.984 -310.663)" fill="#9ce3ff" opacity="0.7" style="mix-blend-mode: screen;isolation: isolate"/>
          <path id="Trazado_6321" data-name="Trazado 6321" d="M319.335,608.426a1.963,1.963,0,1,0-1.972,1.954A1.963,1.963,0,0,0,319.335,608.426Z" transform="translate(-283.138 -323.637)" fill="#9ce3ff" opacity="0.7" style="mix-blend-mode: screen;isolation: isolate"/>
          <path id="Trazado_6322" data-name="Trazado 6322" d="M406.042,580.225a1.963,1.963,0,1,0-1.972,1.954A1.963,1.963,0,0,0,406.042,580.225Z" transform="translate(-315.976 -312.956)" fill="#9ce3ff" opacity="0.7" style="mix-blend-mode: screen;isolation: isolate"/>
          <path id="Trazado_6323" data-name="Trazado 6323" d="M464.858,419.7a1.963,1.963,0,1,0-1.972,1.954A1.963,1.963,0,0,0,464.858,419.7Z" transform="translate(-338.252 -252.161)" fill="#9ce3ff" opacity="0.7" style="mix-blend-mode: screen;isolation: isolate"/>
          <path id="Trazado_6324" data-name="Trazado 6324" d="M426.491,598.315a2.586,2.586,0,1,0-2.6,2.574A2.586,2.586,0,0,0,426.491,598.315Z" transform="translate(-323.249 -319.57)" fill="#9ce3ff" opacity="0.7" style="mix-blend-mode: screen;isolation: isolate"/>
          <circle id="Elipse_744" data-name="Elipse 744" cx="3.832" cy="3.832" r="3.832" transform="translate(104.034 169.153) rotate(-63.275)" fill="#9ce3ff" opacity="0.7" style="mix-blend-mode: screen;isolation: isolate"/>
          <path id="Trazado_6325" data-name="Trazado 6325" d="M469.169,439.9a2.586,2.586,0,1,0-2.6,2.574A2.587,2.587,0,0,0,469.169,439.9Z" transform="translate(-339.413 -259.574)" fill="#9ce3ff" opacity="0.7" style="mix-blend-mode: screen;isolation: isolate"/>
          <circle id="Elipse_745" data-name="Elipse 745" cx="3.58" cy="3.58" r="3.58" transform="matrix(1, -0.016, 0.016, 1, 13.247, 273.832)" fill="#9ce3ff" opacity="0.7" style="mix-blend-mode: screen;isolation: isolate"/>
          <path id="Trazado_6326" data-name="Trazado 6326" d="M343.146,468.7a2.586,2.586,0,1,0-2.6,2.574A2.587,2.587,0,0,0,343.146,468.7Z" transform="translate(-291.684 -270.481)" fill="#9ce3ff" opacity="0.7" style="mix-blend-mode: screen;isolation: isolate"/>
          <path id="Trazado_6327" data-name="Trazado 6327" d="M294.538,525.129a2.586,2.586,0,1,0-2.6,2.574A2.586,2.586,0,0,0,294.538,525.129Z" transform="translate(-273.275 -291.853)" fill="#9ce3ff" opacity="0.7" style="mix-blend-mode: screen;isolation: isolate"/>
          <path id="Trazado_6328" data-name="Trazado 6328" d="M311.956,415.355a4.4,4.4,0,1,0-4.422,4.381A4.4,4.4,0,0,0,311.956,415.355Z" transform="translate(-278.496 -249.587)" fill="#9ce3ff" opacity="0.7" style="mix-blend-mode: screen;isolation: isolate"/>
          <path id="Trazado_6329" data-name="Trazado 6329" d="M331.365,427.532a2.2,2.2,0,1,0-2.211,2.191A2.2,2.2,0,0,0,331.365,427.532Z" transform="translate(-287.514 -255.037)" fill="#9ce3ff" opacity="0.7" style="mix-blend-mode: screen;isolation: isolate"/>
          <path id="Trazado_6330" data-name="Trazado 6330" d="M473.315,397.061a2.2,2.2,0,1,0-2.21,2.191A2.2,2.2,0,0,0,473.315,397.061Z" transform="translate(-341.274 -243.496)" fill="#9ce3ff" opacity="0.7" style="mix-blend-mode: screen;isolation: isolate"/>
          <path id="Trazado_6331" data-name="Trazado 6331" d="M386.5,419.188a2.2,2.2,0,1,0-2.211,2.191A2.2,2.2,0,0,0,386.5,419.188Z" transform="translate(-308.396 -251.876)" fill="#9ce3ff" opacity="0.7" style="mix-blend-mode: screen;isolation: isolate"/>
          <ellipse id="Elipse_746" data-name="Elipse 746" cx="28.873" cy="17.598" rx="28.873" ry="17.598" transform="matrix(0.71, -0.704, 0.704, 0.71, 5.204, 125.807)" fill="#9ce3ff" opacity="0.7" style="mix-blend-mode: screen;isolation: isolate"/>
          <path id="Trazado_6332" data-name="Trazado 6332" d="M360.861,360.2c3.118,2.466,2.365,8.612-1.682,13.727s-9.854,7.262-12.972,4.8-2.365-8.612,1.682-13.727S357.743,357.736,360.861,360.2Z" transform="translate(-294.074 -229.987)" fill="#9ce3ff" opacity="0.7" style="mix-blend-mode: screen;isolation: isolate"/>
          <path id="Trazado_6333" data-name="Trazado 6333" d="M447.486,531.889a4.478,4.478,0,1,0-4.5,4.457A4.477,4.477,0,0,0,447.486,531.889Z" transform="translate(-329.768 -293.693)" fill="#9ce3ff" opacity="0.7" style="mix-blend-mode: screen;isolation: isolate"/>
          <circle id="Elipse_747" data-name="Elipse 747" cx="4.478" cy="4.478" r="4.478" transform="translate(28.219 215.581) rotate(-45)" fill="#9ce3ff" opacity="0.7" style="mix-blend-mode: screen;isolation: isolate"/>
          <path id="Trazado_6334" data-name="Trazado 6334" d="M337.269,428.607c-28.347-.13-59.486-2.471-72.843-13.62l-.223,48.747-.17,37.033c15.612,11.4,43.341,13.486,71.687,13.616s57.345-1.7,74.121-12.948l.181-39.629.211-46.151C393.467,424.66,365.616,428.736,337.269,428.607Z" transform="translate(-263.68 -251.123)" fill="#80e1ff"/>
          <path id="Trazado_6335" data-name="Trazado 6335" d="M337.5,428.607c-28.347-.13-59.486-2.471-72.843-13.62l-.009,2.027c13.358,11.149,44.5,13.49,72.843,13.62s56.2-3.947,72.965-12.952l.009-2.027C393.7,424.66,365.85,428.736,337.5,428.607Z" transform="translate(-263.914 -251.123)" fill="#80e1ff" opacity="0.3" style="mix-blend-mode: screen;isolation: isolate"/>
          <path id="Trazado_6336" data-name="Trazado 6336" d="M264.044,549.114l-.011,2.451c15.612,11.4,43.341,13.486,71.687,13.616s57.345-1.7,74.121-12.948l.011-2.451c-16.776,11.248-45.774,13.079-74.121,12.949S279.656,560.511,264.044,549.114Z" transform="translate(-263.68 -301.92)" fill="#80e1ff" opacity="0.3" style="mix-blend-mode: multiply;isolation: isolate"/>
          <path id="Trazado_6337" data-name="Trazado 6337" d="M282.648,510.672a93.651,93.651,0,0,0,17.272,4.569l.393-85.8A96.512,96.512,0,0,1,283.04,425.1Z" transform="translate(-270.73 -254.955)" fill="#80e1ff" opacity="0.3" style="mix-blend-mode: screen;isolation: isolate"/>
          <path id="Trazado_6338" data-name="Trazado 6338" d="M444.681,512.692c13.234-1.825,25-5.1,33.577-10.851l.181-39.629.211-46.151c-8.7,4.671-20.39,8.005-33.574,10.124Z" transform="translate(-332.097 -251.529)" fill="#80e1ff" opacity="0.3" style="mix-blend-mode: multiply;isolation: isolate"/>
          <path id="Trazado_6339" data-name="Trazado 6339" d="M394.185,244.706c.01-2.206-13.153-4.054-29.4-4.129s-29.426,1.654-29.436,3.86h0l-.135,29.577c-.016,3.29,13.143,6.017,29.39,6.091s29.43-2.532,29.445-5.822l.135-29.577Z" transform="translate(-290.639 -185.068)" fill="#2bc6ef"/>
          <path id="Trazado_6340" data-name="Trazado 6340" d="M394.223,244.385c-1.2-2.061-13.831-3.738-29.282-3.808s-28.1,1.489-29.315,3.539c1.192,3,13.824,5.421,29.274,5.491S393,247.377,394.223,244.385Z" transform="translate(-290.795 -185.068)" fill="#2bc6ef" opacity="0.15" style="mix-blend-mode: screen;isolation: isolate"/>
          <g id="Grupo_4269" data-name="Grupo 4269" transform="translate(47.37 64.413)">
            <path id="Trazado_6341" data-name="Trazado 6341" d="M341.122,254.91a1.3,1.3,0,0,0-1.31,1.3l-.1,21.973a1.3,1.3,0,1,0,2.607.012l.1-21.973A1.3,1.3,0,0,0,341.122,254.91Z" transform="translate(-339.712 -254.91)" fill="#43e0f9" opacity="0.15" style="mix-blend-mode: screen;isolation: isolate"/>
            <path id="Trazado_6342" data-name="Trazado 6342" d="M340.457,278.19l.1-21.974a1.286,1.286,0,0,1,.951-1.226,1.273,1.273,0,0,0-.386-.08,1.3,1.3,0,0,0-1.31,1.3l-.1,21.973a1.3,1.3,0,0,0,1.3,1.31,1.257,1.257,0,0,0,.359-.071A1.288,1.288,0,0,1,340.457,278.19Z" transform="translate(-339.712 -254.91)" fill="#9ce3ff" opacity="0.2" style="mix-blend-mode: screen;isolation: isolate"/>
            <path id="Trazado_6343" data-name="Trazado 6343" d="M341.368,254.929a1.283,1.283,0,0,1,.314.828l-.1,21.973a1.3,1.3,0,0,1-1.31,1.3c-.019,0-.035-.01-.055-.012a1.283,1.283,0,0,0,.983.481,1.3,1.3,0,0,0,1.31-1.3l.1-21.973A1.3,1.3,0,0,0,341.368,254.929Z" transform="translate(-339.903 -254.917)" fill="#9ce3ff" opacity="0.8" style="mix-blend-mode: multiply;isolation: isolate"/>
          </g>
          <g id="Grupo_4270" data-name="Grupo 4270" transform="translate(53.883 65.261)">
            <path id="Trazado_6344" data-name="Trazado 6344" d="M351.606,256.275a1.3,1.3,0,0,0-1.31,1.3l-.1,21.973a1.3,1.3,0,0,0,2.607.012l.1-21.973A1.3,1.3,0,0,0,351.606,256.275Z" transform="translate(-350.196 -256.275)" fill="#43e0f9" opacity="0.15" style="mix-blend-mode: screen;isolation: isolate"/>
            <path id="Trazado_6345" data-name="Trazado 6345" d="M350.941,279.555l.1-21.973a1.286,1.286,0,0,1,.951-1.226,1.265,1.265,0,0,0-.386-.08,1.3,1.3,0,0,0-1.31,1.3l-.1,21.973a1.3,1.3,0,0,0,1.3,1.31,1.262,1.262,0,0,0,.359-.071A1.289,1.289,0,0,1,350.941,279.555Z" transform="translate(-350.196 -256.275)" fill="#9ce3ff" opacity="0.2" style="mix-blend-mode: screen;isolation: isolate"/>
            <path id="Trazado_6346" data-name="Trazado 6346" d="M351.853,256.293a1.285,1.285,0,0,1,.314.829l-.1,21.973a1.3,1.3,0,0,1-1.31,1.3c-.019,0-.035-.01-.055-.011a1.282,1.282,0,0,0,.983.481,1.3,1.3,0,0,0,1.31-1.3l.1-21.973A1.3,1.3,0,0,0,351.853,256.293Z" transform="translate(-350.388 -256.282)" fill="#9ce3ff" opacity="0.8" style="mix-blend-mode: multiply;isolation: isolate"/>
          </g>
          <g id="Grupo_4271" data-name="Grupo 4271" transform="translate(60.394 66.804)">
            <path id="Trazado_6347" data-name="Trazado 6347" d="M362.086,258.758a1.3,1.3,0,0,0-1.31,1.3l-.1,21.973a1.3,1.3,0,1,0,2.607.012l.1-21.973A1.3,1.3,0,0,0,362.086,258.758Z" transform="translate(-360.676 -258.758)" fill="#43e0f9" opacity="0.15" style="mix-blend-mode: screen;isolation: isolate"/>
            <path id="Trazado_6348" data-name="Trazado 6348" d="M361.421,282.038l.1-21.973a1.286,1.286,0,0,1,.951-1.227,1.253,1.253,0,0,0-1.7,1.218l-.1,21.973a1.3,1.3,0,0,0,1.3,1.31,1.259,1.259,0,0,0,.359-.071A1.288,1.288,0,0,1,361.421,282.038Z" transform="translate(-360.676 -258.758)" fill="#9ce3ff" opacity="0.2" style="mix-blend-mode: screen;isolation: isolate"/>
            <path id="Trazado_6349" data-name="Trazado 6349" d="M362.332,258.776a1.282,1.282,0,0,1,.314.828l-.1,21.974a1.3,1.3,0,0,1-1.31,1.3c-.019,0-.035-.01-.055-.011a1.283,1.283,0,0,0,.983.481,1.3,1.3,0,0,0,1.31-1.3l.1-21.973A1.3,1.3,0,0,0,362.332,258.776Z" transform="translate(-360.867 -258.765)" fill="#9ce3ff" opacity="0.8" style="mix-blend-mode: multiply;isolation: isolate"/>
          </g>
          <g id="Grupo_4272" data-name="Grupo 4272" transform="translate(66.911 66.833)">
            <path id="Trazado_6350" data-name="Trazado 6350" d="M372.576,258.806a1.3,1.3,0,0,0-1.31,1.3l-.1,21.973a1.3,1.3,0,0,0,2.607.012l.1-21.973A1.3,1.3,0,0,0,372.576,258.806Z" transform="translate(-371.166 -258.806)" fill="#43e0f9" opacity="0.15" style="mix-blend-mode: screen;isolation: isolate"/>
            <path id="Trazado_6351" data-name="Trazado 6351" d="M371.911,282.086l.1-21.973a1.287,1.287,0,0,1,.951-1.227,1.285,1.285,0,0,0-.386-.08,1.3,1.3,0,0,0-1.31,1.3l-.1,21.973a1.3,1.3,0,0,0,1.3,1.31,1.261,1.261,0,0,0,.359-.071A1.289,1.289,0,0,1,371.911,282.086Z" transform="translate(-371.166 -258.806)" fill="#9ce3ff" opacity="0.2" style="mix-blend-mode: screen;isolation: isolate"/>
            <path id="Trazado_6352" data-name="Trazado 6352" d="M372.823,258.824a1.285,1.285,0,0,1,.314.828l-.1,21.974a1.3,1.3,0,0,1-1.31,1.3c-.019,0-.035-.01-.055-.011a1.282,1.282,0,0,0,.983.481,1.3,1.3,0,0,0,1.31-1.3l.1-21.973A1.3,1.3,0,0,0,372.823,258.824Z" transform="translate(-371.358 -258.813)" fill="#9ce3ff" opacity="0.8" style="mix-blend-mode: multiply;isolation: isolate"/>
          </g>
          <g id="Grupo_4273" data-name="Grupo 4273" transform="translate(73.429 66.88)">
            <path id="Trazado_6353" data-name="Trazado 6353" d="M383.067,258.881a1.3,1.3,0,0,0-1.31,1.3l-.1,21.973a1.3,1.3,0,1,0,2.607.012l.1-21.973A1.3,1.3,0,0,0,383.067,258.881Z" transform="translate(-381.657 -258.881)" fill="#43e0f9" opacity="0.15" style="mix-blend-mode: screen;isolation: isolate"/>
            <path id="Trazado_6354" data-name="Trazado 6354" d="M382.4,282.161l.1-21.973a1.286,1.286,0,0,1,.951-1.227,1.254,1.254,0,0,0-1.7,1.218l-.1,21.973a1.3,1.3,0,0,0,1.3,1.31,1.258,1.258,0,0,0,.358-.071A1.289,1.289,0,0,1,382.4,282.161Z" transform="translate(-381.657 -258.881)" fill="#9ce3ff" opacity="0.2" style="mix-blend-mode: screen;isolation: isolate"/>
            <path id="Trazado_6355" data-name="Trazado 6355" d="M383.313,258.9a1.281,1.281,0,0,1,.314.828l-.1,21.974a1.3,1.3,0,0,1-1.31,1.3c-.019,0-.035-.01-.055-.011a1.283,1.283,0,0,0,.984.482,1.3,1.3,0,0,0,1.309-1.3l.1-21.973A1.3,1.3,0,0,0,383.313,258.9Z" transform="translate(-381.848 -258.888)" fill="#9ce3ff" opacity="0.8" style="mix-blend-mode: multiply;isolation: isolate"/>
          </g>
          <g id="Grupo_4274" data-name="Grupo 4274" transform="translate(79.947 66.904)">
            <path id="Trazado_6356" data-name="Trazado 6356" d="M393.558,258.92a1.3,1.3,0,0,0-1.31,1.3l-.1,21.974a1.3,1.3,0,1,0,2.607.012l.1-21.973A1.3,1.3,0,0,0,393.558,258.92Z" transform="translate(-392.148 -258.92)" fill="#43e0f9" opacity="0.15" style="mix-blend-mode: screen;isolation: isolate"/>
            <path id="Trazado_6357" data-name="Trazado 6357" d="M392.892,282.2l.1-21.973a1.287,1.287,0,0,1,.951-1.227,1.285,1.285,0,0,0-.386-.08,1.3,1.3,0,0,0-1.31,1.3l-.1,21.974a1.3,1.3,0,0,0,1.3,1.31,1.262,1.262,0,0,0,.359-.071A1.29,1.29,0,0,1,392.892,282.2Z" transform="translate(-392.148 -258.92)" fill="#9ce3ff" opacity="0.2" style="mix-blend-mode: screen;isolation: isolate"/>
            <path id="Trazado_6358" data-name="Trazado 6358" d="M393.8,258.938a1.285,1.285,0,0,1,.314.828l-.1,21.974a1.3,1.3,0,0,1-1.31,1.3c-.019,0-.035-.01-.055-.011a1.282,1.282,0,0,0,.983.481,1.3,1.3,0,0,0,1.31-1.3l.1-21.973A1.3,1.3,0,0,0,393.8,258.938Z" transform="translate(-392.339 -258.927)" fill="#9ce3ff" opacity="0.8" style="mix-blend-mode: multiply;isolation: isolate"/>
          </g>
          <g id="Grupo_4275" data-name="Grupo 4275" transform="translate(86.464 66.929)">
            <path id="Trazado_6359" data-name="Trazado 6359" d="M404.048,258.959a1.3,1.3,0,0,0-1.31,1.3l-.1,21.973a1.3,1.3,0,0,0,2.607.012l.1-21.973A1.3,1.3,0,0,0,404.048,258.959Z" transform="translate(-402.638 -258.959)" fill="#43e0f9" opacity="0.15" style="mix-blend-mode: screen;isolation: isolate"/>
            <path id="Trazado_6360" data-name="Trazado 6360" d="M403.383,282.239l.1-21.973a1.286,1.286,0,0,1,.951-1.227,1.253,1.253,0,0,0-1.7,1.218l-.1,21.973a1.3,1.3,0,0,0,1.3,1.31,1.262,1.262,0,0,0,.359-.071A1.289,1.289,0,0,1,403.383,282.239Z" transform="translate(-402.638 -258.959)" fill="#9ce3ff" opacity="0.2" style="mix-blend-mode: screen;isolation: isolate"/>
            <path id="Trazado_6361" data-name="Trazado 6361" d="M404.295,258.977a1.281,1.281,0,0,1,.314.828l-.1,21.974a1.3,1.3,0,0,1-1.31,1.3c-.02,0-.035-.01-.055-.011a1.281,1.281,0,0,0,.983.481,1.3,1.3,0,0,0,1.31-1.3l.1-21.973A1.3,1.3,0,0,0,404.295,258.977Z" transform="translate(-402.83 -258.966)" fill="#9ce3ff" opacity="0.8" style="mix-blend-mode: multiply;isolation: isolate"/>
          </g>
          <g id="Grupo_4276" data-name="Grupo 4276" transform="translate(92.989 65.434)">
            <path id="Trazado_6362" data-name="Trazado 6362" d="M414.55,256.554a1.3,1.3,0,0,0-1.31,1.3l-.1,21.973a1.3,1.3,0,1,0,2.607.012l.1-21.973A1.3,1.3,0,0,0,414.55,256.554Z" transform="translate(-413.14 -256.554)" fill="#43e0f9" opacity="0.15" style="mix-blend-mode: screen;isolation: isolate"/>
            <path id="Trazado_6363" data-name="Trazado 6363" d="M413.885,279.834l.1-21.974a1.285,1.285,0,0,1,.951-1.226,1.274,1.274,0,0,0-.386-.08,1.3,1.3,0,0,0-1.31,1.3l-.1,21.973a1.3,1.3,0,0,0,1.3,1.31,1.258,1.258,0,0,0,.358-.071A1.288,1.288,0,0,1,413.885,279.834Z" transform="translate(-413.14 -256.554)" fill="#9ce3ff" opacity="0.2" style="mix-blend-mode: screen;isolation: isolate"/>
            <path id="Trazado_6364" data-name="Trazado 6364" d="M414.8,256.572a1.283,1.283,0,0,1,.314.829l-.1,21.973a1.3,1.3,0,0,1-1.309,1.3c-.02,0-.036-.01-.055-.012a1.281,1.281,0,0,0,.983.481,1.3,1.3,0,0,0,1.309-1.3l.1-21.973A1.3,1.3,0,0,0,414.8,256.572Z" transform="translate(-413.332 -256.561)" fill="#9ce3ff" opacity="0.8" style="mix-blend-mode: multiply;isolation: isolate"/>
          </g>
          <g id="Grupo_4277" data-name="Grupo 4277" transform="translate(99.512 64.027)">
            <path id="Trazado_6365" data-name="Trazado 6365" d="M425.051,254.288a1.3,1.3,0,0,0-1.31,1.3l-.1,21.974a1.3,1.3,0,0,0,2.607.012l.1-21.974A1.3,1.3,0,0,0,425.051,254.288Z" transform="translate(-423.641 -254.288)" fill="#43e0f9" opacity="0.15" style="mix-blend-mode: screen;isolation: isolate"/>
            <path id="Trazado_6366" data-name="Trazado 6366" d="M424.386,277.568l.1-21.973a1.286,1.286,0,0,1,.951-1.227,1.27,1.27,0,0,0-.386-.08,1.3,1.3,0,0,0-1.31,1.3l-.1,21.974a1.3,1.3,0,0,0,1.3,1.309,1.24,1.24,0,0,0,.359-.071A1.288,1.288,0,0,1,424.386,277.568Z" transform="translate(-423.641 -254.288)" fill="#9ce3ff" opacity="0.2" style="mix-blend-mode: screen;isolation: isolate"/>
            <path id="Trazado_6367" data-name="Trazado 6367" d="M425.3,254.306a1.28,1.28,0,0,1,.314.828l-.1,21.973a1.3,1.3,0,0,1-1.31,1.3c-.02,0-.035-.01-.055-.011a1.284,1.284,0,0,0,.983.481,1.3,1.3,0,0,0,1.31-1.3l.1-21.974A1.3,1.3,0,0,0,425.3,254.306Z" transform="translate(-423.833 -254.295)" fill="#9ce3ff" opacity="0.8" style="mix-blend-mode: multiply;isolation: isolate"/>
          </g>
          <path id="Trazado_6368" data-name="Trazado 6368" d="M386.055,243.505c-.008,1.59-5.034,2.857-11.226,2.829s-11.206-1.341-11.2-2.932,5.033-2.857,11.226-2.829S386.063,241.914,386.055,243.505Z" transform="translate(-301.401 -185.067)" fill="#2bc6ef" opacity="0.15" style="mix-blend-mode: multiply;isolation: isolate"/>
          <path id="Trazado_6369" data-name="Trazado 6369" d="M383.988,172.831l-.2,43.672c-.006,1.443-3.267,2.584-7.307,2.565s-7.29-1.19-7.284-2.632l.2-43.672Z" transform="translate(-303.509 -159.386)" fill="#d5ebef"/>
          <g id="Grupo_4278" data-name="Grupo 4278" transform="translate(65.87 13.379)" opacity="0.5" style="mix-blend-mode: multiply;isolation: isolate">
            <path id="Trazado_6370" data-name="Trazado 6370" d="M369.508,172.765l-.018,3.947,10.644.048-.193,42.023c2.34-.421,3.953-1.272,3.957-2.28l.2-43.672Z" transform="translate(-369.49 -172.765)" fill="#d5ebef"/>
          </g>
          <path id="Trazado_6371" data-name="Trazado 6371" d="M372.756,218.317a13.611,13.611,0,0,0,2.784.6l.211-46.128-2.786-.012Z" transform="translate(-304.857 -159.392)" fill="#f3feff" opacity="0.3"/>
          <path id="Rectángulo_1140" data-name="Rectángulo 1140" d="M0,0H34.078a0,0,0,0,1,0,0V17.172A12.437,12.437,0,0,1,21.641,29.609h-9.2A12.436,12.436,0,0,1,0,17.172V0A0,0,0,0,1,0,0Z" transform="matrix(1, 0.005, -0.005, 1, 56.204, 8.849)" fill="#2bc6ef"/>
          <path id="Trazado_6372" data-name="Trazado 6372" d="M381.686,165.671,381.6,184.76a7.726,7.726,0,0,1-7.762,7.691l-17.237-.079a7.71,7.71,0,0,0,5.933,2.821l18.625.085a7.726,7.726,0,0,0,7.762-7.691l.1-21.882Z" transform="translate(-298.738 -156.7)" fill="#2bc6ef" opacity="0.3" style="mix-blend-mode: multiply;isolation: isolate"/>
          <path id="Trazado_6373" data-name="Trazado 6373" d="M387.957,172.078l.029-6.448-34.077-.156-.037,7.934a102.884,102.884,0,0,0,19.782.544c3.554-.262,7.06-.93,10.6-1.3A29,29,0,0,0,387.957,172.078Z" transform="translate(-297.705 -156.625)" fill="#2bc6ef" opacity="0.5" style="mix-blend-mode: multiply;isolation: isolate"/>
          <path id="Trazado_6374" data-name="Trazado 6374" d="M364.564,157.6c-2.066-4.121-6.283-2.969-9.94-2.429a77.706,77.706,0,0,1-14.338.848c-8.979-.3-17.765-2.237-26.537-3.976-14.791-2.922-39.159,2.647-49.731,7.183a.9.9,0,0,0-.221,1.526l4.778,4.062a11.687,11.687,0,0,0,9.983,2.516c8.317-1.775,22.041-5.767,40.826-1.712a108.755,108.755,0,0,0,25.806,1.431c3.555-.262,7.06-.93,10.6-1.3,2.714-.283,6.143-.705,8.077-2.87A4.46,4.46,0,0,0,364.564,157.6Z" transform="translate(-263.465 -151.231)" fill="#2bc6ef"/>
          <path id="Trazado_6375" data-name="Trazado 6375" d="M364.636,161.745a4.542,4.542,0,0,1-1.247,3.066c-1.934,2.164-5.364,2.586-8.077,2.869-3.543.37-7.048,1.038-10.6,1.3a108.721,108.721,0,0,1-25.806-1.431c-18.784-4.054-32.508-.062-40.825,1.712a11.686,11.686,0,0,1-9.983-2.515l-4.12-3.5a.89.89,0,0,0-.176,1.491l4.778,4.062a11.686,11.686,0,0,0,9.983,2.516c8.317-1.775,22.041-5.767,40.826-1.712a108.753,108.753,0,0,0,25.806,1.431c3.554-.262,7.06-.931,10.6-1.3,2.714-.283,6.143-.7,8.077-2.87A4.439,4.439,0,0,0,364.636,161.745Z" transform="translate(-263.468 -155.213)" fill="#2bc6ef" opacity="0.3" style="mix-blend-mode: multiply;isolation: isolate"/>
          <g id="Grupo_4279" data-name="Grupo 4279" transform="translate(0.001 7.75)" opacity="0.3" style="mix-blend-mode: screen;isolation: isolate">
            <path id="Trazado_6376" data-name="Trazado 6376" d="M288.615,176.964l-.016,0,.017,0Z" transform="translate(-272.985 -168.726)" fill="#9ce3ff"/>
            <path id="Trazado_6377" data-name="Trazado 6377" d="M278.942,171.977c-.634.1-3.3.063-8.581-5.626-2.115-2.28-4.137-2.837-5.878-2.593-.148.062-.322.126-.465.187a.911.911,0,0,0-.224,1.535l4.787,4.055a11.668,11.668,0,0,0,9.984,2.519Z" transform="translate(-263.467 -163.705)" fill="#9ce3ff"/>
            <path id="Trazado_6378" data-name="Trazado 6378" d="M270.364,166.351c-2.115-2.28-4.137-2.837-5.878-2.593-.148.062-.322.126-.465.186a.9.9,0,0,0-.478,1.172,6.612,6.612,0,0,1,5.235,2.032c5.232,5.562,9.791,4.9,9.791,4.9l.326-.072C278.183,172.069,275.522,171.912,270.364,166.351Z" transform="translate(-263.471 -163.705)" fill="#047082" style="mix-blend-mode: multiply;isolation: isolate"/>
          </g>
          <path id="Trazado_6379" data-name="Trazado 6379" d="M371.838,158.232c4.465-.426,9.993-.974,13.81-3.586a35.22,35.22,0,0,0-4.643.563,77.706,77.706,0,0,1-14.338.848c-8.979-.3-17.765-2.237-26.537-3.976a45.585,45.585,0,0,0-7.009-.748c.987.182,2.212.511,2.44.553,2.962.549,5.9,1.224,8.8,2.063,3.2.929,6.2,2.383,9.415,3.262C359.622,158.812,365.837,158.8,371.838,158.232Z" transform="translate(-289.846 -151.269)" fill="#9ce3ff" opacity="0.3"/>
          <path id="Trazado_6380" data-name="Trazado 6380" d="M363.422,181.654a2.257,2.257,0,0,0-2.268,2.247l-.05,10.847a2.258,2.258,0,0,0,4.516.021l.05-10.847A2.258,2.258,0,0,0,363.422,181.654Z" transform="translate(-300.444 -162.753)" fill="#9ce3ff" opacity="0.3"/>
          <g id="Grupo_4280" data-name="Grupo 4280" transform="translate(37.53 239.984)">
            <path id="Trazado_6381" data-name="Trazado 6381" d="M329.961,538.282q.72,3.466,1.552,6.926a1.626,1.626,0,0,1,.073.618c-.052.275-.3.494-.747.636a1.226,1.226,0,0,1-.6.091.547.547,0,0,1-.318-.169.663.663,0,0,1-.149-.253c-.024-.089-.056-.2-.1-.375-.1-.449-.2-.9-.305-1.343q-1.444-.281-2.885-.589c-.268.373-.537.744-.808,1.116-.1.134-.181.235-.234.294a.8.8,0,0,1-.235.172.539.539,0,0,1-.36.032,1.216,1.216,0,0,1-.518-.317c-.359-.3-.5-.59-.442-.867a1.6,1.6,0,0,1,.309-.54q2.127-2.864,4.149-5.773a.981.981,0,0,1,.423-.354.817.817,0,0,1,.508-.062A.874.874,0,0,1,329.961,538.282Zm-1.374,2.581q-.5.715-1,1.427c.457.094.913.189,1.37.28Q328.768,541.716,328.586,540.863Z" transform="translate(-323.874 -537.51)" fill="#fff"/>
            <path id="Trazado_6382" data-name="Trazado 6382" d="M339.214,545.949q1.425.236,2.852.446a1.157,1.157,0,0,1,.491.159.428.428,0,0,1,.171.3,1.929,1.929,0,0,1-.017.5,1.821,1.821,0,0,1-.124.483.393.393,0,0,1-.217.228,1.058,1.058,0,0,1-.568.036q-1.909-.282-3.811-.607c-.493-.086-.756-.283-.79-.588a2.031,2.031,0,0,1,.041-.6l1.13-6.392c.031-.172.06-.31.084-.393a1.067,1.067,0,0,1,.15-.289c.13-.187.409-.251.837-.174q.7.121.764.567a2.7,2.7,0,0,1-.048.607Q339.685,543.092,339.214,545.949Z" transform="translate(-328.918 -538.085)" fill="#fff"/>
            <path id="Trazado_6383" data-name="Trazado 6383" d="M352.332,547.406c.068-.042.137-.086.2-.131a1.178,1.178,0,0,1,.529-.177c.216.02.428.267.636.723a1.477,1.477,0,0,1,.167.675.593.593,0,0,1-.183.392,1.8,1.8,0,0,1-.364.255c-.135.073-.267.146-.391.206a3.545,3.545,0,0,1-.75.226,3.31,3.31,0,0,1-1.069.067,3.5,3.5,0,0,1-1-.266,3.838,3.838,0,0,1-1-.619,4.2,4.2,0,0,1-.867-.961,3.882,3.882,0,0,1-.537-1.356,4.872,4.872,0,0,1-.043-1.71,4.792,4.792,0,0,1,.5-1.6,3.811,3.811,0,0,1,.844-1.121,4.178,4.178,0,0,1,1.044-.683,3.805,3.805,0,0,1,2.068-.385,3.013,3.013,0,0,1,.947.278,3.066,3.066,0,0,1,.707.423l.227.187c.112.092.2.183.263.239a.739.739,0,0,1,.209.578,1.212,1.212,0,0,1-.279.623c-.307.39-.572.578-.783.552a.981.981,0,0,1-.5-.312,1.664,1.664,0,0,0-1.1-.522,2.108,2.108,0,0,0-1.372.363,1.959,1.959,0,0,0-.6.655,2.641,2.641,0,0,0-.34,1.02,2.548,2.548,0,0,0,.074,1.075,2.007,2.007,0,0,0,.441.8,2.107,2.107,0,0,0,1.271.669,2.032,2.032,0,0,0,.626-.023A1.559,1.559,0,0,0,352.332,547.406Z" transform="translate(-332.862 -538.801)" fill="#fff"/>
            <path id="Trazado_6384" data-name="Trazado 6384" d="M363.049,541.928a3.48,3.48,0,0,1,2.531,1.418,4.535,4.535,0,0,1,.956,3.157,4.659,4.659,0,0,1-1.264,3.088,3.388,3.388,0,0,1-2.809,1.118,3.467,3.467,0,0,1-2.643-1.5,4.435,4.435,0,0,1-.832-3.15,5.287,5.287,0,0,1,.483-1.778,4.479,4.479,0,0,1,.949-1.336,3.916,3.916,0,0,1,1.246-.795A3.154,3.154,0,0,1,363.049,541.928Zm-2.218,4.238a2.366,2.366,0,0,0,.46,1.732,1.774,1.774,0,0,0,1.3.75,1.817,1.817,0,0,0,1.391-.534,2.318,2.318,0,0,0,.705-1.651,2.446,2.446,0,0,0-.486-1.74,1.78,1.78,0,0,0-1.277-.731,1.755,1.755,0,0,0-1.365.543A2.418,2.418,0,0,0,360.831,546.166Z" transform="translate(-337.163 -539.18)" fill="#fff"/>
            <path id="Trazado_6385" data-name="Trazado 6385" d="M376.937,543.016a.5.5,0,0,1,.279-.24,1.252,1.252,0,0,1,.488-.062,1.561,1.561,0,0,1,.467.064.781.781,0,0,1,.263.142.525.525,0,0,1,.14.236,2.636,2.636,0,0,1,.047.606q-.027,3.24-.054,6.48a3.645,3.645,0,0,1-.019.4,1.027,1.027,0,0,1-.1.308c-.1.21-.381.311-.837.306-.5-.005-.788-.159-.868-.446a2.159,2.159,0,0,1-.052-.609q.022-1.184.046-2.369-1.388-.027-2.775-.078-.043,1.19-.086,2.382a3.209,3.209,0,0,1-.03.4,1.055,1.055,0,0,1-.112.3c-.108.206-.389.3-.845.283-.5-.021-.786-.176-.856-.47a2.136,2.136,0,0,1-.035-.611q.152-3.235.3-6.471a3.621,3.621,0,0,1,.034-.4.966.966,0,0,1,.112-.306c.1-.2.374-.3.806-.279.474.019.749.173.827.464a2.692,2.692,0,0,1,.029.608q-.043,1.191-.085,2.381,1.373.05,2.746.076l.047-2.393a3.873,3.873,0,0,1,.024-.4A1.079,1.079,0,0,1,376.937,543.016Z" transform="translate(-342.096 -539.433)" fill="#fff"/>
            <path id="Trazado_6386" data-name="Trazado 6386" d="M387.371,542.6a3.48,3.48,0,0,1,2.65,1.181,4.513,4.513,0,0,1,1.241,3.055,4.663,4.663,0,0,1-.974,3.19A3.388,3.388,0,0,1,387.6,551.4a3.465,3.465,0,0,1-2.769-1.256,4.433,4.433,0,0,1-1.118-3.06,5.219,5.219,0,0,1,.317-1.814,4.467,4.467,0,0,1,.821-1.418,3.95,3.95,0,0,1,1.167-.906A3.112,3.112,0,0,1,387.371,542.6Zm-1.817,4.425a2.372,2.372,0,0,0,.617,1.682,1.738,1.738,0,0,0,2.7-.033,2.345,2.345,0,0,0,.55-1.71,2.419,2.419,0,0,0-.645-1.687,1.768,1.768,0,0,0-1.338-.611,1.788,1.788,0,0,0-1.308.667A2.434,2.434,0,0,0,385.554,547.027Z" transform="translate(-346.535 -539.438)" fill="#fff"/>
            <path id="Trazado_6387" data-name="Trazado 6387" d="M398.853,549.25q1.438-.083,2.875-.186a1.133,1.133,0,0,1,.513.048.437.437,0,0,1,.232.257,2.33,2.33,0,0,1,.077.99.391.391,0,0,1-.162.27,1.043,1.043,0,0,1-.546.159q-1.921.138-3.843.237c-.5.024-.8-.107-.9-.4a2.014,2.014,0,0,1-.09-.591q-.146-3.243-.293-6.485c-.007-.18-.009-.313,0-.4a1.07,1.07,0,0,1,.083-.314c.086-.214.344-.334.777-.352.474-.018.762.093.867.386a2.761,2.761,0,0,1,.085.6Q398.69,546.359,398.853,549.25Z" transform="translate(-351.46 -539.391)" fill="#fff"/>
            <path id="Trazado_6388" data-name="Trazado 6388" d="M414.765,544.166q.908-.113,1.814-.232c.373-.029.612.04.724.231a1.617,1.617,0,0,1,.193.633q.175,1.272.352,2.544a1.052,1.052,0,0,1-.2.746,3.328,3.328,0,0,1-2.542,1.351,3.534,3.534,0,0,1-2.894-1,4.535,4.535,0,0,1-1.469-3.038,4.454,4.454,0,0,1,.841-3.2,3.608,3.608,0,0,1,2.537-1.536,3.517,3.517,0,0,1,2.371.614.679.679,0,0,1,.344.479,1.282,1.282,0,0,1-.145.685c-.21.436-.427.685-.645.71a1.351,1.351,0,0,1-.665-.237,1.732,1.732,0,0,0-1.062-.194,1.925,1.925,0,0,0-1.31.782,2.261,2.261,0,0,0-.43,1.692,2.468,2.468,0,0,0,.813,1.637,1.856,1.856,0,0,0,1.508.535,2.431,2.431,0,0,0,1.014-.338l-.16-1.261c-.274.034-.548.07-.823.1a.849.849,0,0,1-.47-.038.426.426,0,0,1-.209-.252,2.137,2.137,0,0,1-.1-.482,2.093,2.093,0,0,1-.011-.5.378.378,0,0,1,.14-.275A.977.977,0,0,1,414.765,544.166Z" transform="translate(-356.765 -538.697)" fill="#fff"/>
            <path id="Trazado_6389" data-name="Trazado 6389" d="M424.808,545.817q1.612-.25,3.221-.53c.161-.026.281-.042.363-.047a.921.921,0,0,1,.3.06c.206.076.354.355.442.846.1.535.022.875-.221,1.013a1.725,1.725,0,0,1-.537.166q-2.093.364-4.193.678c-.5.069-.806-.032-.934-.311a2.088,2.088,0,0,1-.147-.581l-.921-6.425a1.254,1.254,0,0,1,.076-.831.926.926,0,0,1,.695-.32q1.985-.3,3.963-.641a1.921,1.921,0,0,1,.349-.044.754.754,0,0,1,.286.061c.2.076.344.36.432.847.1.533.028.873-.206,1.01a1.558,1.558,0,0,1-.516.162q-1.562.275-3.126.515c.06.388.121.778.18,1.166q1.017-.156,2.032-.328a2.8,2.8,0,0,1,.357-.043.792.792,0,0,1,.291.063c.2.073.346.358.432.85.094.54.016.872-.231,1.012a1.664,1.664,0,0,1-.527.159q-1.017.169-2.036.328C424.687,545.041,424.748,545.428,424.808,545.817Z" transform="translate(-361.094 -538.017)" fill="#fff"/>
            <path id="Trazado_6390" data-name="Trazado 6390" d="M435.452,544.715q1.419-.281,2.835-.581a1.136,1.136,0,0,1,.518-.023.44.44,0,0,1,.267.224,1.977,1.977,0,0,1,.158.473,1.933,1.933,0,0,1,.053.5.405.405,0,0,1-.124.289,1.065,1.065,0,0,1-.522.231q-1.892.4-3.791.767c-.493.094-.81.007-.947-.273a2.021,2.021,0,0,1-.171-.574l-1.178-6.384c-.032-.182-.052-.306-.058-.4a1.062,1.062,0,0,1,.04-.322c.054-.223.3-.379.724-.456.467-.091.771,0,.914.263a2.748,2.748,0,0,1,.167.584Z" transform="translate(-365.011 -537.752)" fill="#fff"/>
          </g>
          <g id="Grupo_4282" data-name="Grupo 4282" transform="translate(54.108 188.365)">
            <path id="Trazado_6391" data-name="Trazado 6391" d="M390.18,484.887c-.352-7.19-5.1-13.478-9.458-19-2.194-2.785-4.52-5.467-6.933-8.064-.937-1.007-2.062-2.7-3.275-3.4a120.265,120.265,0,0,0-9.614,10.5c-3.821,4.663-7.642,9.465-9.551,15.266-1.815,5.514-.393,11.966,3.036,16.585a20.218,20.218,0,0,0,15.9,7.957c9.464.043,18.418-7.122,19.751-16.613A17.1,17.1,0,0,0,390.18,484.887Z" transform="translate(-350.557 -454.424)" fill="#3fceef"/>
            <path id="Trazado_6392" data-name="Trazado 6392" d="M380.177,472.477c.715,1.234,1.989,2.327,2.834,3.495a36.952,36.952,0,0,1,4.873,8.975c5,13.793-7.088,29.6-21.951,23.526-4.036-1.649-8.482-5.183-8.769-9.891-.559-9.16,9.441-1.712,17.965.139S386.056,482.611,380.177,472.477Z" transform="translate(-353.051 -461.261)" fill="#3fceef" opacity="0.2" style="mix-blend-mode: multiply;isolation: isolate"/>
            <path id="Trazado_6393" data-name="Trazado 6393" d="M359.951,507.508c-.156,2.07-1.346,3.667-2.657,3.569s-2.247-1.858-2.091-3.927,1.346-3.668,2.657-3.569S360.107,505.438,359.951,507.508Z" transform="translate(-352.31 -473.04)" fill="#53e2f9"/>
            <g id="Grupo_4281" data-name="Grupo 4281" transform="translate(9.136 18.409)">
              <path id="Trazado_6394" data-name="Trazado 6394" d="M385.779,491.658l-5.289-.024.024-5.288a1.155,1.155,0,0,0-1.149-1.161l-5.714-.026a1.155,1.155,0,0,0-1.161,1.15l-.024,5.288-5.288-.024a1.155,1.155,0,0,0-1.16,1.15l-.026,5.714a1.155,1.155,0,0,0,1.15,1.16l5.288.024-.024,5.289a1.155,1.155,0,0,0,1.15,1.16l5.714.026a1.154,1.154,0,0,0,1.16-1.149l.024-5.289,5.289.024a1.155,1.155,0,0,0,1.16-1.149l.026-5.714A1.155,1.155,0,0,0,385.779,491.658Z" transform="translate(-365.538 -484.473)" fill="#80e1ff" opacity="0.3" style="mix-blend-mode: multiply;isolation: isolate"/>
              <path id="Trazado_6395" data-name="Trazado 6395" d="M385.049,490.554l-5.288-.024.024-5.288a1.156,1.156,0,0,0-1.15-1.161l-5.714-.026a1.155,1.155,0,0,0-1.161,1.15l-.024,5.288-5.288-.024a1.155,1.155,0,0,0-1.161,1.15l-.026,5.714a1.155,1.155,0,0,0,1.15,1.16l5.288.024-.024,5.289a1.156,1.156,0,0,0,1.15,1.16l5.714.026a1.154,1.154,0,0,0,1.16-1.149l.024-5.289,5.289.024a1.154,1.154,0,0,0,1.16-1.149l.027-5.714A1.156,1.156,0,0,0,385.049,490.554Z" transform="translate(-365.262 -484.055)" fill="#fff"/>
              <path id="Trazado_6396" data-name="Trazado 6396" d="M391.4,490.562l-5.288-.024.024-5.288a1.156,1.156,0,0,0-1.15-1.16l-2.857-.013-.1,20.911,2.857.013a1.154,1.154,0,0,0,1.16-1.149l.024-5.289,5.289.024a1.154,1.154,0,0,0,1.16-1.149l.027-5.714A1.156,1.156,0,0,0,391.4,490.562Z" transform="translate(-371.614 -484.063)" fill="#80e1ff" opacity="0.1"/>
            </g>
            <path id="Trazado_6397" data-name="Trazado 6397" d="M371.946,462.071s-15.094,13.6-13.884,21.462C359.606,493.573,371.946,462.071,371.946,462.071Z" transform="translate(-353.373 -457.32)" fill="#53e2f9"/>
          </g>
        </g>
        <path id="Trazado_6398" data-name="Trazado 6398" d="M280.079,174.068c.1-.137.2-.278.29-.411a19.953,19.953,0,0,1-5.349-4.141c-.568.2-1.121.431-1.664.67A14.367,14.367,0,0,0,280.079,174.068Z" transform="translate(-267.211 -158.156)" fill="#9ce3ff" opacity="0.5" style="mix-blend-mode: multiply;isolation: isolate"/>
      </g>
      <g id="Grupo_4294" data-name="Grupo 4294" transform="translate(123.461 117.589)">
        <path id="Trazado_6399" data-name="Trazado 6399" d="M645.886,518.092a102.424,102.424,0,0,0,6.648-26c1.542-13.629-3.216-26.626-12.05-36.639a50.352,50.352,0,0,0-13.057-11.008c-10.848-7.091-23.347-11.873-35.037-17.092q-7.687-3.432-15.51-6.577c-.549-.226-1.1-.446-1.651-.669s-1.1-.444-1.654-.662q-7.821-3.137-15.74-6c-12.045-4.337-24.371-9.549-37.106-11.953a50.354,50.354,0,0,0-17.041-1.11c-13.307,1.1-25.744,7.173-34.076,18.069A102.409,102.409,0,0,0,456.389,441.8c-.886,2.138-1.68,4.3-2.363,6.482-2.783,8.658-4.193,17.577-3.369,25.786,1.435,14.292,9.228,29.051,21.656,36.791q1.269.908,2.6,1.753c16.284,10.314,34.212,18.694,52.7,25.752,18.224,7.725,36.958,14.105,55.846,17.951q1.544.314,3.089.537c14.325,3.03,30.171-2.212,41.108-11.523,6.282-5.347,11.445-12.755,15.437-20.925C644.116,522.359,645.043,520.248,645.886,518.092Z" transform="translate(-450.423 -363.064)" fill="#b1ebfe"/>
        <path id="Trazado_6400" data-name="Trazado 6400" d="M451.927,479.156c-.824-8.209.586-17.128,3.369-25.786.683-2.179,1.477-4.343,2.363-6.482a102.453,102.453,0,0,1,13.222-23.354c8.331-10.9,20.769-16.971,34.076-18.068a50.349,50.349,0,0,1,17.04,1.11c12.735,2.4,25.061,7.616,37.106,11.953q7.921,2.852,15.741,6c.552.219,1.1.441,1.654.662s1.1.444,1.652.668q7.813,3.158,15.509,6.577c11.69,5.219,24.189,10,35.037,17.092a50.358,50.358,0,0,1,13.056,11.007,49.7,49.7,0,0,1,10.265,18.088,48.864,48.864,0,0,0-11.534-23.177,50.352,50.352,0,0,0-13.057-11.008c-10.848-7.091-23.347-11.873-35.037-17.092q-7.687-3.432-15.51-6.577c-.549-.226-1.1-.446-1.651-.669s-1.1-.444-1.654-.662q-7.821-3.137-15.74-6c-12.045-4.337-24.371-9.549-37.106-11.953a50.354,50.354,0,0,0-17.041-1.11c-13.307,1.1-25.744,7.173-34.076,18.069A102.409,102.409,0,0,0,456.389,441.8c-.886,2.138-1.68,4.3-2.363,6.482-2.783,8.658-4.193,17.577-3.369,25.786a52.007,52.007,0,0,0,1.985,9.812C452.332,482.306,452.084,480.729,451.927,479.156Z" transform="translate(-450.423 -363.064)" fill="#b1ebfe" opacity="0.5" style="mix-blend-mode: screen;isolation: isolate"/>
        <path id="Trazado_6401" data-name="Trazado 6401" d="M652.715,533.31a45.586,45.586,0,0,0-4.028-24.4,44.959,44.959,0,0,1-.093,9.076c-3.654,32.291-28.052,72.783-65.98,64.76q-1.544-.225-3.09-.537c-19.473-3.963-38.114-11.036-56.544-18.318s-38.259-15.452-54.605-27.138C460.592,531.9,454.628,524.3,450.9,515.79c1.565,14.133,9.31,28.638,21.592,36.287q1.269.908,2.6,1.753c16.284,10.314,34.212,18.694,52.7,25.752,18.224,7.725,36.958,14.105,55.846,17.951q1.544.314,3.089.537c14.325,3.03,30.171-2.212,41.108-11.523,6.282-5.347,11.445-12.755,15.437-20.925,1.018-2.045,1.945-4.156,2.788-6.313A102.429,102.429,0,0,0,652.715,533.31Z" transform="translate(-450.605 -404.282)" fill="#b1ebfe" style="mix-blend-mode: multiply;isolation: isolate"/>
        <path id="Trazado_6402" data-name="Trazado 6402" d="M652.715,537.5a45.041,45.041,0,0,0-.976-15.661,44.976,44.976,0,0,1-.04,9.7,102.426,102.426,0,0,1-6.648,26c-.843,2.156-1.77,4.267-2.788,6.313-3.992,8.17-9.156,15.577-15.437,20.925-10.937,9.311-26.783,14.553-41.107,11.522q-1.545-.225-3.09-.537c-18.888-3.846-37.622-10.226-55.846-17.95-18.492-7.058-36.421-15.437-52.7-25.752q-1.332-.843-2.6-1.753c-10.541-6.566-17.731-18.181-20.552-30.277-.007-.017-.016-.035-.024-.052,1.565,14.133,9.31,28.638,21.592,36.287q1.269.908,2.6,1.753c16.284,10.314,34.212,18.694,52.7,25.752,18.224,7.725,36.958,14.105,55.846,17.951q1.544.314,3.089.537c14.325,3.03,30.171-2.212,41.108-11.523,6.282-5.347,11.445-12.755,15.437-20.925,1.018-2.045,1.945-4.156,2.788-6.313A102.43,102.43,0,0,0,652.715,537.5Z" transform="translate(-450.605 -408.478)" fill="#b1ebfe" opacity="0.4" style="mix-blend-mode: multiply;isolation: isolate"/>
        <ellipse id="Elipse_748" data-name="Elipse 748" cx="34.867" cy="62.269" rx="34.867" ry="62.269" transform="translate(27.098 115.732) rotate(-68.07)" fill="#b1ebfe"/>
        <path id="Trazado_6403" data-name="Trazado 6403" d="M631.526,519.451a21.234,21.234,0,0,1-1.254,10.792c-7.192,17.863-38.884,21.932-70.785,9.089-23.737-9.556-40.891-25.783-45.161-40.822,2.092,16.08,20.144,34.4,46,44.809,31.9,12.844,63.593,8.774,70.784-9.089A22.52,22.52,0,0,0,631.526,519.451Z" transform="translate(-474.625 -400.344)" fill="#b1ebfe" opacity="0.5" style="mix-blend-mode: screen;isolation: isolate"/>
        <path id="Trazado_6404" data-name="Trazado 6404" d="M514.276,472.989c7.192-17.863,38.883-21.932,70.785-9.089,24.945,10.042,42.63,27.452,45.72,43.108,2.971-17.4-16.367-39.6-45.885-51.484-31.9-12.844-63.593-8.774-70.785,9.089a21.737,21.737,0,0,0-.978,12.492A19.972,19.972,0,0,1,514.276,472.989Z" transform="translate(-473.99 -381.226)" fill="#b1ebfe" style="mix-blend-mode: multiply;isolation: isolate"/>
        <g id="Grupo_4285" data-name="Grupo 4285" transform="translate(136.335 46.146)">
          <circle id="Elipse_749" data-name="Elipse 749" cx="4.501" cy="4.501" r="4.501" transform="matrix(0.955, -0.298, 0.298, 0.955, 0, 2.678)" fill="#d2f3ff" style="mix-blend-mode: multiply;isolation: isolate"/>
          <path id="Trazado_6405" data-name="Trazado 6405" d="M680.1,421.958a4.5,4.5,0,1,0-5.855,2.494A4.5,4.5,0,0,0,680.1,421.958Z" transform="translate(-670.459 -415.156)" fill="#d2f3ff"/>
          <path id="Trazado_6406" data-name="Trazado 6406" d="M679.714,419.107a4.5,4.5,0,0,1-6.1,3.339,4.481,4.481,0,0,1-2.1-1.743,4.5,4.5,0,1,0,8.2-1.6Z" transform="translate(-670.46 -416.418)" fill="#d2f3ff" opacity="0.5" style="mix-blend-mode: multiply;isolation: isolate"/>
          <path id="Trazado_6407" data-name="Trazado 6407" d="M675.152,421.923c.008.977-.529,1.773-1.2,1.778s-1.221-.781-1.23-1.758.529-1.772,1.2-1.778S675.144,420.947,675.152,421.923Z" transform="translate(-670.949 -416.819)" fill="#fff" opacity="0.6"/>
          <path id="Trazado_6408" data-name="Trazado 6408" d="M675.538,418.643a.514.514,0,1,1,.023-.831A.6.6,0,0,1,675.538,418.643Z" transform="translate(-671.655 -415.898)" fill="#fff" opacity="0.6"/>
          <path id="Trazado_6409" data-name="Trazado 6409" d="M680.19,426.6a2.177,2.177,0,0,1-2.225.176c-1.166-.69-.234-1.835.636-1.918,2.644-.253,2.789-2.407,3.327-1.9S681.858,425.588,680.19,426.6Z" transform="translate(-672.728 -417.848)" fill="#fff" opacity="0.3"/>
        </g>
        <g id="Grupo_4286" data-name="Grupo 4286" transform="translate(50.84 19.473)">
          <path id="Trazado_6410" data-name="Trazado 6410" d="M548.262,385.092a6.432,6.432,0,1,0-8.369,3.564A6.432,6.432,0,0,0,548.262,385.092Z" transform="translate(-533.622 -373.516)" fill="#d2f3ff" style="mix-blend-mode: multiply;isolation: isolate"/>
          <circle id="Elipse_750" data-name="Elipse 750" cx="6.432" cy="6.432" r="6.432" transform="matrix(0.92, -0.392, 0.392, 0.92, 0, 5.041)" fill="#d2f3ff"/>
          <path id="Trazado_6411" data-name="Trazado 6411" d="M547.324,379.833A6.429,6.429,0,0,1,538.6,384.6a6.4,6.4,0,0,1-3-2.491,6.431,6.431,0,1,0,11.725-2.281Z" transform="translate(-533.479 -374.871)" fill="#d2f3ff" opacity="0.5" style="mix-blend-mode: multiply;isolation: isolate"/>
          <path id="Trazado_6412" data-name="Trazado 6412" d="M540.8,383.857c.012,1.4-.756,2.534-1.715,2.542s-1.746-1.116-1.758-2.512.755-2.533,1.715-2.542S540.792,382.461,540.8,383.857Z" transform="translate(-534.178 -375.443)" fill="#fff" opacity="0.6"/>
          <path id="Trazado_6413" data-name="Trazado 6413" d="M541.356,379.169a.734.734,0,1,1,.032-1.186A.859.859,0,0,1,541.356,379.169Z" transform="translate(-535.187 -374.128)" fill="#fff" opacity="0.6"/>
          <path id="Trazado_6414" data-name="Trazado 6414" d="M548,390.546a3.11,3.11,0,0,1-3.179.252c-1.666-.985-.334-2.624.908-2.742,3.779-.361,3.986-3.439,4.755-2.716S550.388,389.094,548,390.546Z" transform="translate(-536.72 -376.915)" fill="#fff" opacity="0.3"/>
        </g>
        <g id="Grupo_4287" data-name="Grupo 4287" transform="translate(116.798 22.01)">
          <circle id="Elipse_751" data-name="Elipse 751" cx="8.803" cy="8.803" r="8.803" transform="translate(0 14.094) rotate(-53.185)" fill="#d2f3ff" style="mix-blend-mode: multiply;isolation: isolate"/>
          <circle id="Elipse_752" data-name="Elipse 752" cx="8.803" cy="8.803" r="8.803" transform="matrix(0.171, -0.985, 0.985, 0.171, 1.821, 18.483)" fill="#d2f3ff"/>
          <path id="Trazado_6415" data-name="Trazado 6415" d="M659.769,386.485a8.794,8.794,0,0,1-16.047,3.122,8.8,8.8,0,1,0,16.047-3.122Z" transform="translate(-640.371 -379.927)" fill="#d2f3ff" opacity="0.5" style="mix-blend-mode: multiply;isolation: isolate"/>
          <path id="Trazado_6416" data-name="Trazado 6416" d="M650.847,391.992c.016,1.91-1.034,3.467-2.347,3.478s-2.389-1.528-2.406-3.437,1.034-3.467,2.347-3.478S650.831,390.083,650.847,391.992Z" transform="translate(-641.328 -380.711)" fill="#fff" opacity="0.6"/>
          <path id="Trazado_6417" data-name="Trazado 6417" d="M651.6,385.577a1.005,1.005,0,1,1,.045-1.623A1.178,1.178,0,0,1,651.6,385.577Z" transform="translate(-642.709 -378.91)" fill="#fff" opacity="0.6"/>
          <path id="Trazado_6418" data-name="Trazado 6418" d="M660.7,401.145a4.255,4.255,0,0,1-4.351.345c-2.281-1.349-.457-3.59,1.243-3.752,5.171-.495,5.455-4.708,6.507-3.717S663.964,399.16,660.7,401.145Z" transform="translate(-644.806 -382.724)" fill="#fff" opacity="0.3"/>
        </g>
        <g id="Grupo_4288" data-name="Grupo 4288" transform="translate(30.271 0)">
          <circle id="Elipse_753" data-name="Elipse 753" cx="10.527" cy="10.527" r="10.527" transform="translate(0.386 9.454) rotate(-23.07)" fill="#d2f3ff" style="mix-blend-mode: multiply;isolation: isolate"/>
          <circle id="Elipse_754" data-name="Elipse 754" cx="10.527" cy="10.527" r="10.527" transform="translate(0 8.25) rotate(-23.07)" fill="#d2f3ff"/>
          <path id="Trazado_6419" data-name="Trazado 6419" d="M523.807,353.575a10.517,10.517,0,0,1-19.19,3.733,10.525,10.525,0,1,0,19.19-3.733Z" transform="translate(-501.149 -345.453)" fill="#d2f3ff" opacity="0.5" style="mix-blend-mode: multiply;isolation: isolate"/>
          <ellipse id="Elipse_755" data-name="Elipse 755" cx="2.842" cy="4.135" rx="2.842" ry="4.135" transform="translate(5.126 9.683) rotate(-0.486)" fill="#fff" opacity="0.6"/>
          <path id="Trazado_6420" data-name="Trazado 6420" d="M514.04,352.488a1.2,1.2,0,1,1,.053-1.941A1.408,1.408,0,0,1,514.04,352.488Z" transform="translate(-503.945 -344.237)" fill="#fff" opacity="0.6"/>
          <path id="Trazado_6421" data-name="Trazado 6421" d="M524.919,371.106a5.089,5.089,0,0,1-5.2.413c-2.727-1.613-.547-4.294,1.487-4.487,6.184-.591,6.524-5.63,7.782-4.445S528.823,368.731,524.919,371.106Z" transform="translate(-506.453 -348.798)" fill="#fff" opacity="0.3"/>
        </g>
        <g id="Grupo_4289" data-name="Grupo 4289" transform="translate(149.761 36.793)">
          <path id="Trazado_6422" data-name="Trazado 6422" d="M699.656,406.135a4.116,4.116,0,1,0-5.355,2.281A4.116,4.116,0,0,0,699.656,406.135Z" transform="translate(-691.571 -400.012)" fill="#d2f3ff" style="mix-blend-mode: multiply;isolation: isolate"/>
          <circle id="Elipse_756" data-name="Elipse 756" cx="4.116" cy="4.116" r="4.116" fill="#d2f3ff"/>
          <path id="Trazado_6423" data-name="Trazado 6423" d="M699.055,402.77a4.112,4.112,0,0,1-7.5,1.46,4.115,4.115,0,1,0,7.5-1.46Z" transform="translate(-691.48 -400.878)" fill="#d2f3ff" opacity="0.5" style="mix-blend-mode: multiply;isolation: isolate"/>
          <path id="Trazado_6424" data-name="Trazado 6424" d="M694.883,405.345c.007.893-.484,1.621-1.1,1.626s-1.117-.714-1.125-1.608.484-1.621,1.1-1.626S694.876,404.452,694.883,405.345Z" transform="translate(-691.927 -401.245)" fill="#fff" opacity="0.6"/>
          <path id="Trazado_6425" data-name="Trazado 6425" d="M695.237,402.345a.47.47,0,1,1,.021-.759A.551.551,0,0,1,695.237,402.345Z" transform="translate(-692.573 -400.403)" fill="#fff" opacity="0.6"/>
          <path id="Trazado_6426" data-name="Trazado 6426" d="M699.49,409.625a1.992,1.992,0,0,1-2.035.162c-1.066-.631-.214-1.679.582-1.755,2.418-.231,2.551-2.2,3.043-1.738S701.016,408.7,699.49,409.625Z" transform="translate(-693.554 -402.186)" fill="#fff" opacity="0.3"/>
        </g>
        <circle id="Elipse_757" data-name="Elipse 757" cx="15.852" cy="15.852" r="15.852" transform="matrix(0.861, -0.509, 0.509, 0.861, 139.721, 73.124)" fill="#f0fcff"/>
        <circle id="Elipse_758" data-name="Elipse 758" cx="15.852" cy="15.852" r="15.852" transform="translate(171.875 67.582) rotate(-23.07)" fill="#f0fcff"/>
        <circle id="Elipse_759" data-name="Elipse 759" cx="15.852" cy="15.852" r="15.852" transform="translate(24.702 35.053) rotate(-5.535)" fill="#f0fcff"/>
        <circle id="Elipse_760" data-name="Elipse 760" cx="21.088" cy="21.088" r="21.088" transform="translate(166.488 95.479) rotate(-23.07)" fill="#f0fcff"/>
        <circle id="Elipse_761" data-name="Elipse 761" cx="12.834" cy="12.834" r="12.834" transform="translate(161.501 102.551) rotate(-74.908)" fill="#f0fcff"/>
        <circle id="Elipse_762" data-name="Elipse 762" cx="8.776" cy="8.776" r="8.776" transform="matrix(0.92, -0.392, 0.392, 0.92, 209.513, 78.526)" fill="#f0fcff"/>
        <circle id="Elipse_763" data-name="Elipse 763" cx="5.294" cy="5.294" r="5.294" transform="translate(156.1 113.515) rotate(-72.224)" fill="#f0fcff"/>
        <circle id="Elipse_764" data-name="Elipse 764" cx="8.776" cy="8.776" r="8.776" transform="matrix(0.92, -0.392, 0.392, 0.92, 10.973, 21.579)" fill="#f0fcff"/>
        <circle id="Elipse_765" data-name="Elipse 765" cx="10.3" cy="10.3" r="10.3" transform="translate(162.351 79.905) rotate(-65.016)" fill="#f0fcff"/>
        <circle id="Elipse_766" data-name="Elipse 766" cx="12.31" cy="12.31" r="12.31" transform="translate(5.597 51.732) rotate(-23.07)" fill="#f0fcff"/>
        <circle id="Elipse_767" data-name="Elipse 767" cx="7.825" cy="7.825" r="7.825" transform="translate(49.124 44.834) rotate(-32.353)" fill="#f0fcff"/>
        <circle id="Elipse_768" data-name="Elipse 768" cx="7.825" cy="7.825" r="7.825" transform="translate(71.126 47.536) rotate(-78.011)" fill="#f0fcff"/>
        <circle id="Elipse_769" data-name="Elipse 769" cx="5.873" cy="5.873" r="5.873" transform="matrix(0.392, -0.92, 0.92, 0.392, 104.28, 52.438)" fill="#f0fcff"/>
        <path id="Trazado_6427" data-name="Trazado 6427" d="M546.591,461.893a5.023,5.023,0,1,0-6.535,2.783A5.023,5.023,0,0,0,546.591,461.893Z" transform="translate(-483.178 -383.864)" fill="#f0fcff"/>
        <circle id="Elipse_770" data-name="Elipse 770" cx="14.017" cy="14.017" r="14.017" transform="translate(45.55 72.952) rotate(-68.147)" fill="#f0fcff"/>
        <circle id="Elipse_771" data-name="Elipse 771" cx="14.017" cy="14.017" r="14.017" transform="translate(80.259 35.896)" fill="#f0fcff"/>
        <circle id="Elipse_772" data-name="Elipse 772" cx="7.935" cy="7.935" r="7.935" transform="translate(104.412 69.706) rotate(-73.705)" fill="#f0fcff"/>
        <circle id="Elipse_773" data-name="Elipse 773" cx="17.2" cy="17.2" r="17.2" transform="matrix(0.27, -0.963, 0.963, 0.27, 19.025, 83.005)" fill="#f0fcff"/>
        <path id="Trazado_6428" data-name="Trazado 6428" d="M495.077,496.609a8.045,8.045,0,1,0-10.468,4.458A8.046,8.046,0,0,0,495.077,496.609Z" transform="translate(-461.461 -395.439)" fill="#f0fcff"/>
        <g id="Grupo_4293" data-name="Grupo 4293" transform="translate(49.244 80.298)">
          <g id="Grupo_4291" data-name="Grupo 4291" transform="translate(0.569 2.678)" style="mix-blend-mode: multiply;isolation: isolate">
            <g id="Grupo_4290" data-name="Grupo 4290">
              <path id="Trazado_6429" data-name="Trazado 6429" d="M550.651,477.79l-4.558,11.28a22.7,22.7,0,0,1-1.133,2.446,8.5,8.5,0,0,1-1.408,1.858,6.072,6.072,0,0,1-3.542,1.789,8.613,8.613,0,0,1-4.512-.67,9.2,9.2,0,0,1-3.371-2.165,5.766,5.766,0,0,1-1.456-3.185,8.791,8.791,0,0,1,0-2.2,8.326,8.326,0,0,1,.532-2.16,2.079,2.079,0,0,1,2.9-1.29,1.78,1.78,0,0,1,1.105,1.028,3.773,3.773,0,0,1,.047,1.83,15.486,15.486,0,0,0-.23,2.008,2.911,2.911,0,0,0,.369,1.5,2.768,2.768,0,0,0,1.478,1.161q2.894,1.169,4.609-3.076l4.812-11.912a3.162,3.162,0,0,1,1.382-1.748,2.147,2.147,0,0,1,1.846-.023,2.219,2.219,0,0,1,1.341,1.311A3.112,3.112,0,0,1,550.651,477.79Z" transform="translate(-530.603 -474.06)" fill="#b1ebfe"/>
              <path id="Trazado_6430" data-name="Trazado 6430" d="M566.049,503.353l.064-3.118L557.36,496.7l-2.144,2.346a10.391,10.391,0,0,1-1.909,1.765,1.763,1.763,0,0,1-1.623,0,2.2,2.2,0,0,1-1.211-1.19,1.993,1.993,0,0,1-.08-1.621,3.268,3.268,0,0,1,.516-.851q.336-.411,1.012-1.111l11.157-11.758,1.15-1.218a7.914,7.914,0,0,1,1.272-1.118,3.092,3.092,0,0,1,1.349-.506,3.76,3.76,0,0,1,3.026,1.223,3.141,3.141,0,0,1,.625,1.285,6.728,6.728,0,0,1,.16,1.423q0,.728-.02,1.931l.012,16.167a7.521,7.521,0,0,1-.271,2.573,2.062,2.062,0,0,1-1.179,1.121,2.217,2.217,0,0,1-1.758.016,2.1,2.1,0,0,1-.806-.54,1.943,1.943,0,0,1-.416-.749,4.951,4.951,0,0,1-.145-1.186Q566.054,503.936,566.049,503.353Zm-6.221-9.468,6.434,2.6.344-10.2Z" transform="translate(-538.046 -476.846)" fill="#b1ebfe"/>
              <path id="Trazado_6431" data-name="Trazado 6431" d="M591.521,514.828l-6.58-2.658a2.935,2.935,0,0,1-1.776-1.461,3.1,3.1,0,0,1,.212-2.279l6.54-16.186a3.036,3.036,0,0,1,1.451-1.8,2.989,2.989,0,0,1,2.272.191l6.976,2.819a17.634,17.634,0,0,1,2.6,1.271,6.156,6.156,0,0,1,1.73,1.553,5.776,5.776,0,0,1,.885,1.7,5.486,5.486,0,0,1,.273,1.9,5.58,5.58,0,0,1-.412,1.909,5.341,5.341,0,0,1-5.142,3.424q3.7,3.066,2.12,6.972a6.377,6.377,0,0,1-2.24,2.88,5.993,5.993,0,0,1-3.36,1.128,9.586,9.586,0,0,1-2.5-.334A24.868,24.868,0,0,1,591.521,514.828Zm3.541-9.692-4.538-1.834-2.54,6.287,4.685,1.892q4.421,1.786,5.709-1.4a2.8,2.8,0,0,0-.19-2.827A6.917,6.917,0,0,0,595.062,505.137Zm-1.026-10.529-2.249,5.567,3.995,1.614a8.68,8.68,0,0,0,2.643.71,2.591,2.591,0,0,0,1.834-.627,2.86,2.86,0,0,0,.925-1.232A2.312,2.312,0,0,0,600.9,498a9.547,9.547,0,0,0-3.323-1.966Z" transform="translate(-550.458 -480.21)" fill="#b1ebfe"/>
              <path id="Trazado_6432" data-name="Trazado 6432" d="M631.546,503.9a12.4,12.4,0,0,1,5.2,3.682,9.5,9.5,0,0,1,2.075,5.332,14.218,14.218,0,0,1-1.143,6.381,15.547,15.547,0,0,1-2.509,4.266,10.583,10.583,0,0,1-3.457,2.72,9.542,9.542,0,0,1-4.245.951,14.114,14.114,0,0,1-9.023-3.672,9.654,9.654,0,0,1-2.406-3.646,10.58,10.58,0,0,1-.577-4.385,15.5,15.5,0,0,1,1.138-4.784,15.033,15.033,0,0,1,2.552-4.266,10.538,10.538,0,0,1,3.488-2.691,9.629,9.629,0,0,1,4.189-.9A12.81,12.81,0,0,1,631.546,503.9Zm1.724,13.579a10.906,10.906,0,0,0,.892-4.406,6.153,6.153,0,0,0-1.123-3.5,6.468,6.468,0,0,0-2.894-2.2,6.374,6.374,0,0,0-2.615-.484,5.731,5.731,0,0,0-2.488.661,7.378,7.378,0,0,0-2.233,1.891,11.715,11.715,0,0,0-1.789,3.1,11.99,11.99,0,0,0-.878,3.506,7.343,7.343,0,0,0,.313,2.988,5.911,5.911,0,0,0,1.349,2.245,6.6,6.6,0,0,0,5.621,1.861,6.238,6.238,0,0,0,3.277-1.682A10.772,10.772,0,0,0,633.27,517.475Zm2.113-18.127,1.983.8c.5.2.719.375.66.523a4.578,4.578,0,0,1-1.208.622q-1.161.5-2.307.93a7.356,7.356,0,0,1-1.533.457,4.2,4.2,0,0,1-1.964-.3q-.632-.255-.483-.623a2.275,2.275,0,0,1,.732-.711l1.16-.967a4.369,4.369,0,0,1,1.551-.962A2.475,2.475,0,0,1,635.383,499.348Z" transform="translate(-562.73 -483.539)" fill="#b1ebfe"/>
              <path id="Trazado_6433" data-name="Trazado 6433" d="M659.233,519.638l3.26,16.078,5.174-12.807a3.031,3.031,0,0,1,1.293-1.656,1.95,1.95,0,0,1,1.7-.04,2.009,2.009,0,0,1,1.231,1.224,3,3,0,0,1-.213,2.092l-6.842,16.935q-1.146,2.835-3.495,1.885a3.358,3.358,0,0,1-.99-.6,2.886,2.886,0,0,1-.665-.892,5.634,5.634,0,0,1-.417-1.167q-.153-.636-.3-1.292l-3.112-15.848-5.1,12.616a2.9,2.9,0,0,1-1.327,1.634,2.044,2.044,0,0,1-1.724.038,2.019,2.019,0,0,1-1.225-1.239,2.958,2.958,0,0,1,.193-2.083l6.712-16.612a5.083,5.083,0,0,1,.906-1.565,2.549,2.549,0,0,1,1.361-.705,2.707,2.707,0,0,1,1.564.145,2.617,2.617,0,0,1,.93.6,2.657,2.657,0,0,1,.527.811,5.729,5.729,0,0,1,.307,1.1Q659.105,518.937,659.233,519.638Z" transform="translate(-574.447 -489.786)" fill="#b1ebfe"/>
            </g>
          </g>
          <g id="Grupo_4292" data-name="Grupo 4292">
            <path id="Trazado_6434" data-name="Trazado 6434" d="M549.736,473.48l-4.558,11.28a22.854,22.854,0,0,1-1.133,2.445,8.519,8.519,0,0,1-1.408,1.858,6.077,6.077,0,0,1-3.542,1.789,8.616,8.616,0,0,1-4.513-.67,9.208,9.208,0,0,1-3.371-2.165,5.772,5.772,0,0,1-1.456-3.185,8.833,8.833,0,0,1,0-2.2,8.328,8.328,0,0,1,.532-2.16,2.079,2.079,0,0,1,2.9-1.29,1.782,1.782,0,0,1,1.105,1.028,3.774,3.774,0,0,1,.046,1.83,15.576,15.576,0,0,0-.23,2.008,2.912,2.912,0,0,0,.369,1.5,2.766,2.766,0,0,0,1.478,1.161q2.893,1.169,4.608-3.076l4.813-11.912a3.159,3.159,0,0,1,1.382-1.748,2.146,2.146,0,0,1,1.846-.023,2.217,2.217,0,0,1,1.341,1.311A3.109,3.109,0,0,1,549.736,473.48Z" transform="translate(-529.688 -469.75)" fill="#caf5ff"/>
            <path id="Trazado_6435" data-name="Trazado 6435" d="M565.134,499.043l.064-3.118-8.754-3.536-2.144,2.346a10.415,10.415,0,0,1-1.909,1.765,1.763,1.763,0,0,1-1.623,0,2.206,2.206,0,0,1-1.211-1.19,2,2,0,0,1-.08-1.621,3.268,3.268,0,0,1,.515-.851q.337-.411,1.013-1.111l11.157-11.758,1.15-1.218a7.914,7.914,0,0,1,1.272-1.118,3.088,3.088,0,0,1,1.349-.506,3.761,3.761,0,0,1,3.026,1.223,3.14,3.14,0,0,1,.625,1.285,6.725,6.725,0,0,1,.16,1.423c0,.485,0,1.129-.021,1.931l.012,16.167a7.54,7.54,0,0,1-.271,2.573,2.062,2.062,0,0,1-1.179,1.121,2.216,2.216,0,0,1-1.758.016,2.1,2.1,0,0,1-.807-.54,1.932,1.932,0,0,1-.415-.749,4.914,4.914,0,0,1-.145-1.186Q565.139,499.626,565.134,499.043Zm-6.221-9.468,6.433,2.6.344-10.2Z" transform="translate(-537.131 -472.536)" fill="#caf5ff"/>
            <path id="Trazado_6436" data-name="Trazado 6436" d="M590.606,510.518l-6.58-2.658a2.933,2.933,0,0,1-1.776-1.461,3.1,3.1,0,0,1,.213-2.279L589,487.933a3.039,3.039,0,0,1,1.452-1.8,2.988,2.988,0,0,1,2.271.191l6.977,2.819a17.631,17.631,0,0,1,2.6,1.271,6.154,6.154,0,0,1,1.73,1.553,5.76,5.76,0,0,1,.886,1.7,5.488,5.488,0,0,1,.273,1.9,5.581,5.581,0,0,1-.413,1.909,5.341,5.341,0,0,1-5.142,3.424q3.7,3.066,2.12,6.973a6.382,6.382,0,0,1-2.24,2.88,6,6,0,0,1-3.36,1.128,9.586,9.586,0,0,1-2.5-.334A24.861,24.861,0,0,1,590.606,510.518Zm3.54-9.692-4.538-1.833-2.54,6.286,4.685,1.893q4.421,1.786,5.708-1.4a2.8,2.8,0,0,0-.19-2.827A6.916,6.916,0,0,0,594.146,500.827ZM593.121,490.3l-2.249,5.567,3.995,1.614a8.681,8.681,0,0,0,2.643.71,2.592,2.592,0,0,0,1.834-.627,2.86,2.86,0,0,0,.925-1.232,2.311,2.311,0,0,0-.285-2.635,9.568,9.568,0,0,0-3.323-1.966Z" transform="translate(-549.543 -475.9)" fill="#caf5ff"/>
            <path id="Trazado_6437" data-name="Trazado 6437" d="M630.631,499.587a12.4,12.4,0,0,1,5.2,3.682,9.5,9.5,0,0,1,2.075,5.332,14.207,14.207,0,0,1-1.143,6.381,15.54,15.54,0,0,1-2.509,4.266,10.59,10.59,0,0,1-3.457,2.72,9.542,9.542,0,0,1-4.245.951,12.926,12.926,0,0,1-4.83-1.029,12.8,12.8,0,0,1-4.194-2.643,9.649,9.649,0,0,1-2.406-3.646,10.582,10.582,0,0,1-.578-4.385,15.521,15.521,0,0,1,1.139-4.784,15.016,15.016,0,0,1,2.552-4.266,10.531,10.531,0,0,1,3.488-2.691,9.633,9.633,0,0,1,4.189-.9A12.81,12.81,0,0,1,630.631,499.587Zm1.724,13.579a10.9,10.9,0,0,0,.892-4.406,6.157,6.157,0,0,0-1.123-3.5,6.468,6.468,0,0,0-2.894-2.2,6.374,6.374,0,0,0-2.615-.484,5.729,5.729,0,0,0-2.488.661,7.376,7.376,0,0,0-2.233,1.891,11.678,11.678,0,0,0-1.789,3.1,11.99,11.99,0,0,0-.878,3.506,7.341,7.341,0,0,0,.313,2.988,5.911,5.911,0,0,0,1.349,2.245,6.6,6.6,0,0,0,5.621,1.861,6.233,6.233,0,0,0,3.276-1.682A10.774,10.774,0,0,0,632.355,513.165Zm2.113-18.127,1.982.8c.5.2.719.375.66.522a4.563,4.563,0,0,1-1.208.623q-1.161.505-2.307.93a7.363,7.363,0,0,1-1.533.457,4.2,4.2,0,0,1-1.965-.3c-.421-.17-.582-.377-.483-.623a2.268,2.268,0,0,1,.732-.711l1.16-.967a4.369,4.369,0,0,1,1.551-.962A2.475,2.475,0,0,1,634.468,495.038Z" transform="translate(-561.815 -479.229)" fill="#caf5ff"/>
            <path id="Trazado_6438" data-name="Trazado 6438" d="M658.318,515.328l3.259,16.078,5.175-12.807a3.028,3.028,0,0,1,1.293-1.656,1.949,1.949,0,0,1,1.7-.04,2.011,2.011,0,0,1,1.231,1.224,3.006,3.006,0,0,1-.213,2.092l-6.843,16.935q-1.145,2.835-3.495,1.886a3.375,3.375,0,0,1-.99-.6,2.888,2.888,0,0,1-.665-.892,5.667,5.667,0,0,1-.416-1.167q-.153-.636-.3-1.292l-3.113-15.848-5.1,12.616a2.9,2.9,0,0,1-1.326,1.634,2.045,2.045,0,0,1-1.724.038,2.017,2.017,0,0,1-1.225-1.239,2.957,2.957,0,0,1,.193-2.083l6.712-16.612a5.069,5.069,0,0,1,.905-1.564,2.549,2.549,0,0,1,1.362-.706,2.714,2.714,0,0,1,1.564.145,2.462,2.462,0,0,1,1.456,1.409,5.686,5.686,0,0,1,.308,1.1Q658.19,514.628,658.318,515.328Z" transform="translate(-573.532 -485.476)" fill="#caf5ff"/>
          </g>
        </g>
      </g>
    </g>
  </g>
</svg>
