<svg xmlns="http://www.w3.org/2000/svg" width="118" height="118" viewBox="0 0 118 118">
  <g id="Grupo_3885" data-name="Grupo 3885" transform="translate(-217 4519.03)">
    <circle id="Elipse_568" data-name="Elipse 568" cx="59" cy="59" r="59" transform="translate(217 -4519.03)" fill="#08931f"/>
    <circle id="Elipse_569" data-name="Elipse 569" cx="53" cy="53" r="53" transform="translate(223 -4513.03)" fill="#fff"/>
    <path id="Trazado_7398" data-name="Trazado 7398" d="M545.764,1406.058a6.638,6.638,0,0,1-.076-9.609,5.754,5.754,0,0,0-5.737-4.652H528.138l.368-1.1a15.789,15.789,0,0,0-4.476-16.981,5.245,5.245,0,0,0-8.346,2.2,1.238,1.238,0,0,0-.019.8c1.03,3.276,1.044,5.479.05,7.6-1.031,2.2-3.249,4.517-7.417,7.736a18.424,18.424,0,0,1-2.72,1.7,11.424,11.424,0,0,0-3.9,3h-4.522v-1.24a1.24,1.24,0,0,0-1.24-1.24h-12.4a1.24,1.24,0,0,0-1.24,1.24v32.243a1.24,1.24,0,0,0,1.24,1.24h12.4a1.24,1.24,0,0,0,1.24-1.24v-3.72h6.956a19.642,19.642,0,0,0,13.087,4.96h15.548a5.578,5.578,0,0,0,4.638-8.681h.323a52.425,52.425,0,0,1,8.061-14.261Z" transform="translate(-238.27 -5863.458)"/>
    <rect id="Rectángulo_796" data-name="Rectángulo 796" width="9.921" height="29.763" transform="translate(246.48 -4466.701)" fill="#0fb72b"/>
    <path id="Trazado_7399" data-name="Trazado 7399" d="M540.183,1409.158h-11.9a1.241,1.241,0,0,0,0,2.481H537.7a3.1,3.1,0,0,1,0,6.2h-9.425a1.24,1.24,0,0,0,0,2.48h4.464a3.1,3.1,0,1,1,0,6.2H517.194a17.165,17.165,0,0,1-11.76-4.627,1.245,1.245,0,0,0-.847-.334h-7.436v-22.321h5.129a1.241,1.241,0,0,0,1-.505,8.8,8.8,0,0,1,3.477-2.794,20.825,20.825,0,0,0,3.059-1.92c8.49-6.559,10.433-10.577,8.353-17.6a2.759,2.759,0,0,1,4.33-.75,13.245,13.245,0,0,1,3.655,14.241l-.629,1.887h-1.586a1.24,1.24,0,0,0,0,2.48h16.013a3.256,3.256,0,0,1,3.289,2.571,3.1,3.1,0,0,1-3.057,3.63h-11.9a1.24,1.24,0,0,0,0,2.48h11.9a3.1,3.1,0,1,1,0,6.2Z" transform="translate(-238.27 -5863.458)" fill="#fccd9d"/>
    <g id="Grupo_2204" data-name="Grupo 2204" transform="translate(-238.27 -5863.458)">
      <g id="Grupo_2203" data-name="Grupo 2203">
        <path id="Trazado_7400" data-name="Trazado 7400" d="M490.951,1401.718a1.24,1.24,0,1,0,1.24,1.24A1.24,1.24,0,0,0,490.951,1401.718Z"/>
      </g>
    </g>
    <g id="Grupo_2206" data-name="Grupo 2206" transform="translate(-238.27 -5863.458)">
      <g id="Grupo_2205" data-name="Grupo 2205">
        <path id="Trazado_7401" data-name="Trazado 7401" d="M490.951,1406.678a1.24,1.24,0,0,0-1.24,1.24v12.4a1.24,1.24,0,0,0,2.48,0v-12.4A1.24,1.24,0,0,0,490.951,1406.678Z"/>
      </g>
    </g>
  </g>
</svg>
