<svg xmlns="http://www.w3.org/2000/svg" width="118" height="118" viewBox="0 0 118 118">
  <g id="Grupo_3886" data-name="Grupo 3886" transform="translate(-217 4343.03)">
    <circle id="Elipse_570" data-name="Elipse 570" cx="59" cy="59" r="59" transform="translate(217 -4343.03)" fill="#e01414"/>
    <circle id="Elipse_571" data-name="Elipse 571" cx="53" cy="53" r="53" transform="translate(223 -4337.03)" fill="#fff"/>
    <g id="Grupo_2212" data-name="Grupo 2212" transform="translate(-336.27 -5777.458)">
      <path id="Trazado_7402" data-name="Trazado 7402" d="M580.27,1493.4a6.638,6.638,0,0,1,.076,9.609,5.753,5.753,0,0,0,5.737,4.652H597.9l-.368,1.1a15.786,15.786,0,0,0,4.476,16.98,5.245,5.245,0,0,0,8.346-2.2,1.243,1.243,0,0,0,.019-.8c-1.03-3.277-1.045-5.48-.05-7.6,1.031-2.2,3.249-4.517,7.416-7.736a18.431,18.431,0,0,1,2.721-1.7,11.424,11.424,0,0,0,3.905-3h4.521v1.24a1.24,1.24,0,0,0,1.24,1.24h12.4a1.24,1.24,0,0,0,1.24-1.24V1471.7a1.24,1.24,0,0,0-1.24-1.24h-12.4a1.24,1.24,0,0,0-1.24,1.24v3.721h-6.955a19.64,19.64,0,0,0-13.087-4.961H593.291a5.578,5.578,0,0,0-4.637,8.681h-.323a52.425,52.425,0,0,1-8.061,14.261Z"/>
      <rect id="Rectángulo_797" data-name="Rectángulo 797" width="9.921" height="29.763" transform="translate(631.363 1472.938)" fill="#ff5d5d"/>
      <path id="Trazado_7403" data-name="Trazado 7403" d="M585.851,1490.3h11.9a1.24,1.24,0,0,0,0-2.48h-9.425a3.1,3.1,0,1,1,0-6.2h9.425a1.24,1.24,0,0,0,0-2.48h-4.465a3.1,3.1,0,0,1,0-6.2H608.84a17.165,17.165,0,0,1,11.76,4.627,1.243,1.243,0,0,0,.847.334h7.435v22.322h-5.129a1.239,1.239,0,0,0-1,.5,8.792,8.792,0,0,1-3.478,2.794,20.746,20.746,0,0,0-3.058,1.921c-8.49,6.558-10.433,10.576-8.353,17.6a2.76,2.76,0,0,1-4.33.75,13.242,13.242,0,0,1-3.655-14.24l.629-1.888H602.1a1.24,1.24,0,0,0,0-2.48H586.082a3.256,3.256,0,0,1-3.288-2.571,3.1,3.1,0,0,1,3.056-3.63h11.905a1.24,1.24,0,1,0,0-2.48H585.85a3.1,3.1,0,1,1,0-6.2Z" fill="#fccd9d"/>
      <g id="Grupo_2209" data-name="Grupo 2209">
        <g id="Grupo_2208" data-name="Grupo 2208">
          <path id="Trazado_7404" data-name="Trazado 7404" d="M635.083,1497.74a1.24,1.24,0,1,0-1.24-1.24A1.24,1.24,0,0,0,635.083,1497.74Z"/>
        </g>
      </g>
      <g id="Grupo_2211" data-name="Grupo 2211">
        <g id="Grupo_2210" data-name="Grupo 2210">
          <path id="Trazado_7405" data-name="Trazado 7405" d="M635.083,1492.78a1.24,1.24,0,0,0,1.24-1.24v-12.4a1.24,1.24,0,0,0-2.48,0v12.4A1.24,1.24,0,0,0,635.083,1492.78Z"/>
        </g>
      </g>
    </g>
  </g>
</svg>
